# xmcd
#
# Track frame offsets:
#	150
#	14693
#	38332
#	52751
#	70565
#	84754
#	104135
#	116551
#	137175
#	150200
#	163518
#	183310
#	198049
#
# Disc length: 2936 seconds
# Revision: 0
# Processed by: cddbd v1.5.2PL0 Copyright (c) Steve Scherf et al.
# Submitted via: dBpowerAMP V12.0
#
DISCID=940b760d
DTITLE=Farmstrong - Don't Go Down That Road
DYEAR=2017
DGENRE=Americana
TTITLE0=Don't Go Down That Road
TTITLE1=Pancho and Lefty
TTITLE2=Lo I Be with You
TTITLE3=The Natural Thing
TTITLE4=Mama Played the Carroll County Blues
TTITLE5=Friend for Life
TTITLE6=Youngblood
TTITLE7=Carolina Pines
TTITLE8=Speed of the Sound of Loneliness
TTITLE9=What Kind of Girl Are You
TTITLE10=River of Tears
TTITLE11=You Dont Have to Cry
TTITLE12=Papa Was a Rolling Stone
EXTD=
EXTT0=
EXTT1=
EXTT2=
EXTT3=
EXTT4=
EXTT5=
EXTT6=
EXTT7=
EXTT8=
EXTT9=
EXTT10=
EXTT11=
EXTT12=
PLAYORDER=
